<mxfile host="app.diagrams.net" modified="2023-06-12T23:37:33.813Z" agent="Mozilla/5.0 (Windows NT 10.0; Win64; x64) AppleWebKit/537.36 (KHTML, like Gecko) Chrome/114.0.0.0 Safari/537.36" version="21.3.8" etag="wdPF5LRWaP43zP1x6ri-" type="github">
  <diagram name="Page-1" id="Zwe3_EPQM28AT7u9_bqZ">
    <mxGraphModel>
      <root>
        <mxCell id="0" />
        <mxCell id="1" parent="0" />
      </root>
    </mxGraphModel>
  </diagram>
</mxfile>
